HIERARCHY
ROOT Hips
{
 OFFSET 0.000000 0.000000 0.000000
 CHANNELS 6 Xposition Yposition Zposition Yrotation Xrotation Zrotation
 JOINT Chest
 {
  OFFSET 0.000000 9.585900 0.002600
  CHANNELS 3 Yrotation Xrotation Zrotation
  JOINT Chest2
  {
   OFFSET 0.000000 9.601200 -0.005300
   CHANNELS 3 Yrotation Xrotation Zrotation
   JOINT Chest3
   {
    OFFSET 0.000000 9.561800 0.000000
    CHANNELS 3 Yrotation Xrotation Zrotation
    JOINT Chest4
    {
     OFFSET 0.000000 9.552100 0.000000
     CHANNELS 3 Yrotation Xrotation Zrotation
     JOINT Neck
     {
      OFFSET 0.000000 14.453000 0.000000
      CHANNELS 3 Yrotation Xrotation Zrotation
      JOINT Head
      {
       OFFSET 0.000000 8.936500 -0.011300
       CHANNELS 3 Yrotation Xrotation Zrotation
       End Site
       {
        OFFSET 0.000000 17.073600 -0.006000
       }
      }
     }
     JOINT RightCollar
     {
      OFFSET -2.921100 9.558500 0.000000
      CHANNELS 3 Yrotation Xrotation Zrotation
      JOINT RightShoulder
      {
       OFFSET -13.519700 0.000000 0.000000
       CHANNELS 3 Yrotation Xrotation Zrotation
       JOINT RightElbow
       {
        OFFSET 0.000000 -29.696600 0.000000
        CHANNELS 3 Yrotation Xrotation Zrotation
        JOINT RightWrist
        {
         OFFSET 0.000000 -24.004700 0.000000
         CHANNELS 3 Yrotation Xrotation Zrotation
         End Site
         {
          OFFSET 0.000000 -17.728500 0.000000
         }
        }
       }
      }
     }
     JOINT LeftCollar
     {
      OFFSET 2.921100 9.558500 0.000000
      CHANNELS 3 Yrotation Xrotation Zrotation
      JOINT LeftShoulder
      {
       OFFSET 13.519700 0.000000 0.000000
       CHANNELS 3 Yrotation Xrotation Zrotation
       JOINT LeftElbow
       {
        OFFSET 0.000000 -29.696600 0.000000
        CHANNELS 3 Yrotation Xrotation Zrotation
        JOINT LeftWrist
        {
         OFFSET 0.000000 -24.004700 0.000000
         CHANNELS 3 Yrotation Xrotation Zrotation
         End Site
         {
          OFFSET 0.000000 -17.728500 0.000000
         }
        }
       }
      }
     }
    }
   }
  }
 }
 JOINT RightHip
 {
  OFFSET -7.771700 -0.012900 -0.001300
  CHANNELS 3 Yrotation Xrotation Zrotation
  JOINT RightKnee
  {
   OFFSET 0.000000 -40.869800 0.001200
   CHANNELS 3 Yrotation Xrotation Zrotation
   JOINT RightAnkle
   {
    OFFSET 0.000000 -39.717900 0.002100
    CHANNELS 3 Yrotation Xrotation Zrotation
    JOINT RightToe
    {
     OFFSET 0.000000 -4.965400 11.033500
     CHANNELS 3 Yrotation Xrotation Zrotation
     End Site
     {
      OFFSET 0.000000 -1.423100 5.872300
     }
    }
   }
  }
 }
 JOINT LeftHip
 {
  OFFSET 7.771700 -0.012900 -0.001300
  CHANNELS 3 Yrotation Xrotation Zrotation
  JOINT LeftKnee
  {
   OFFSET 0.000000 -40.869800 0.001200
   CHANNELS 3 Yrotation Xrotation Zrotation
   JOINT LeftAnkle
   {
    OFFSET 0.000000 -39.717900 0.002100
    CHANNELS 3 Yrotation Xrotation Zrotation
    JOINT LeftToe
    {
     OFFSET 0.000000 -4.965400 11.033500
     CHANNELS 3 Yrotation Xrotation Zrotation
     End Site
     {
      OFFSET 0.000000 -1.423100 5.872300
     }
    }
   }
  }
 }
}
MOTION
Frames: 7
Frame Time: 0.008333
-232.738309 60.616630 -72.932739 159.126945 -19.096880 2.509372 2.929914 14.171520 1.763640 0.249715 1.273681 0.128110 0.394573 2.113455 0.221135 2.538040 12.706088 1.576294 3.795009 17.615913 -2.322631 4.493748 -7.017815 -3.214103 6.265496 4.481231 -3.769470 13.429055 -22.251316 -12.981470 -18.699101 -70.351966 28.095017 0.370388 1.608003 -30.515202 -8.443181 0.161894 -5.858236 4.232137 -14.980306 6.327383 1.027168 -78.713365 -21.568860 -4.869427 1.313558 15.791952 1.617255 -50.057998 1.697896 -22.540270 70.065989 -18.528786 -0.350646 -4.878534 -2.569280 -0.088720 -0.056172 -0.049690 12.193732 -49.889118 -2.205369 26.305029 66.467861 26.604113 -21.824015 -15.892139 0.502617 0.119015 0.068223 0.040763
-232.744166 60.617957 -72.931648 159.118846 -19.137348 2.501663 2.898165 14.156332 1.767815 0.236599 1.261908 0.131023 0.406601 2.135687 0.220467 2.521499 12.704385 1.580843 3.782418 17.663542 -2.276092 4.464975 -6.968832 -3.155502 6.295625 4.523929 -3.793001 13.566349 -22.508770 -13.233680 -22.033034 -70.849271 31.771164 0.032587 1.365351 -30.661206 -8.455645 0.190405 -5.888840 4.110731 -15.014945 6.499744 7.950154 -79.262778 -28.890598 -4.544022 0.936196 15.807620 1.644682 -50.009136 1.647264 -22.471698 70.066516 -18.402805 -0.338768 -4.883772 -2.569993 -0.097414 -0.050858 -0.065683 12.171189 -49.857230 -2.166736 26.302264 66.475483 26.591899 -21.845125 -15.882148 0.503615 0.138536 0.059925 0.050771
-232.750826 60.619290 -72.930278 159.113975 -19.176971 2.492165 2.869467 14.140041 1.771402 0.253652 1.295067 0.134019 0.362546 2.064618 0.219565 2.515396 12.724373 1.586785 3.741933 17.734163 -2.179735 4.474286 -6.913504 -3.148628 6.338782 4.586219 -3.811024 13.727834 -22.769219 -13.493797 -25.699647 -71.240090 35.787960 -0.354967 1.161980 -30.792161 -8.457860 0.248003 -5.918529 4.060760 -15.083109 6.662080 16.805563 -79.327513 -38.378078 -4.210643 0.566300 15.842457 1.664913 -49.961801 1.598134 -22.398028 70.068422 -18.267761 -0.325847 -4.886097 -2.588954 -0.098408 -0.045864 -0.071827 12.147013 -49.825440 -2.128384 26.307962 66.476866 26.587301 -21.879362 -15.868387 0.503239 0.091597 0.049784 0.052104
-232.756447 60.621939 -72.932279 159.111007 -19.241561 2.480572 2.851187 14.161292 1.778599 0.247182 1.292157 0.133544 0.377111 2.088017 0.222199 2.509153 12.723006 1.587737 3.717749 17.757236 -2.134715 4.415629 -6.870262 -3.052141 6.345167 4.590877 -3.817362 13.895741 -23.036617 -13.754560 -29.699812 -71.511548 40.150611 -0.775466 0.999918 -30.895248 -8.503569 0.264826 -5.922268 4.102200 -15.201106 6.806817 26.266821 -78.825514 -48.711779 -3.897127 0.198957 15.914033 1.676018 -49.890541 1.559541 -22.346097 70.070852 -18.162516 -0.332821 -4.896357 -2.611657 -0.073936 -0.035438 -0.065369 12.115818 -49.767539 -2.077328 26.327734 66.477937 26.592043 -21.926515 -15.846232 0.515282 0.105629 0.030211 0.053189
-232.763009 60.623074 -72.930169 159.094916 -19.281575 2.468458 2.851704 14.159676 1.788460 0.228043 1.248300 0.130642 0.402147 2.151485 0.229903 2.494555 12.698017 1.586133 3.715396 17.803751 -2.101697 4.335648 -6.833865 -2.928022 6.364522 4.617376 -3.818555 14.064067 -23.311814 -14.015592 -33.961373 -71.653341 44.794002 -1.223248 0.850162 -30.970747 -8.512163 0.310854 -5.929511 4.207755 -15.368541 6.931069 34.823306 -77.819144 -58.345901 -3.602486 -0.171965 16.008650 1.691398 -49.845464 1.535899 -22.298015 70.067502 -18.066157 -0.319178 -4.887546 -2.625907 -0.071628 -0.036477 -0.072150 12.103618 -49.734762 -2.033604 26.320189 66.483653 26.582932 -21.969008 -15.845521 0.515316 0.060787 0.030299 0.052308
-232.770819 60.623286 -72.925844 159.085044 -19.308160 2.456552 2.852720 14.155559 1.796839 0.231083 1.257935 0.132885 0.393093 2.128912 0.228067 2.496369 12.695419 1.590097 3.682010 17.845538 -2.033053 4.276515 -6.796061 -2.832682 6.379206 4.643383 -3.817073 14.243410 -23.587994 -14.280476 -38.412927 -71.677711 49.654282 -1.702951 0.681642 -31.049536 -8.528825 0.358171 -5.934118 4.404682 -15.585398 7.030686 41.812502 -76.449511 -66.573834 -3.325715 -0.535323 16.104318 1.699418 -49.816272 1.512691 -22.217648 70.069433 -17.943159 -0.317811 -4.879833 -2.646070 -0.069167 -0.036075 -0.072615 12.098110 -49.715312 -2.003695 26.356689 66.483426 26.611473 -21.996830 -15.851312 0.522809 0.059255 0.037065 0.050830
-232.779630 60.623327 -72.921370 159.074757 -19.333600 2.451136 2.848361 14.142565 1.793721 0.239067 1.276166 0.138426 0.386904 2.106701 0.223843 2.496596 12.690554 1.591017 3.606712 17.880562 -1.897167 4.258410 -6.744453 -2.793752 6.395392 4.671926 -3.809381 14.432478 -23.860998 -14.548618 -43.026462 -71.602789 54.708528 -2.201865 0.465997 -31.149858 -8.613228 0.426264 -5.932229 4.743035 -15.868723 7.104178 47.229338 -74.851038 -73.346359 -3.067244 -0.903198 16.194382 1.711657 -49.789460 1.482210 -22.163049 70.069491 -17.847703 -0.306366 -4.871730 -2.665614 -0.067252 -0.034956 -0.067942 12.105252 -49.696969 -1.986731 26.368911 66.488109 26.625061 -22.049657 -15.859063 0.527310 0.134446 0.043172 0.064856
